<?xml version="1.0" standalone="no"?>
<!DOCTYPE svg PUBLIC "-//W3C//DTD SVG 20010904//EN"
 "http://www.w3.org/TR/2001/REC-SVG-20010904/DTD/svg10.dtd">
<svg version="1.0" xmlns="http://www.w3.org/2000/svg"
 width="260.000000pt" height="260.000000pt" viewBox="0 0 260.000000 260.000000"
 preserveAspectRatio="xMidYMid meet">
<metadata>
Created by potrace 1.11, written by Peter Selinger 2001-2013
</metadata>
<g transform="translate(0.000000,260.000000) scale(0.100000,-0.100000)"
fill="#000000" stroke="none">
<path d="M1220 2540 c0 -53 -2 -60 -20 -60 -18 0 -20 -7 -20 -80 0 -73 -2 -80
-20 -80 -18 0 -20 -7 -20 -85 l0 -85 -85 0 c-78 0 -85 -2 -85 -20 0 -18 -7
-20 -80 -20 -73 0 -80 2 -80 20 0 18 -7 20 -60 20 -53 0 -60 2 -60 20 0 18 -7
20 -80 20 -73 0 -80 2 -80 20 0 13 -7 20 -20 20 -15 0 -20 7 -20 25 0 24 -3
25 -60 25 l-60 0 0 -45 c0 -41 -2 -45 -25 -45 -22 0 -25 -4 -25 -40 0 -33 -3
-40 -20 -40 -13 0 -20 -7 -20 -20 0 -13 -7 -20 -20 -20 -13 0 -20 -7 -20 -20
0 -13 -7 -20 -20 -20 -13 0 -20 -7 -20 -20 0 -13 -7 -20 -20 -20 -18 0 -20 -7
-20 -60 0 -53 2 -60 20 -60 17 0 20 -7 20 -40 0 -33 3 -40 20 -40 13 0 20 -7
20 -20 0 -13 7 -20 20 -20 13 0 20 -7 20 -20 0 -13 7 -20 20 -20 17 0 20 -7
20 -40 0 -36 3 -40 25 -40 20 0 25 -5 25 -25 0 -18 5 -25 20 -25 19 0 20 -7
20 -100 0 -93 -1 -100 -20 -100 -19 0 -20 -7 -20 -180 l0 -180 -25 0 c-18 0
-25 -5 -25 -20 0 -19 -7 -20 -140 -20 l-140 0 0 -45 c0 -38 3 -45 20 -45 17 0
20 -7 20 -40 0 -33 3 -40 20 -40 17 0 20 -7 20 -40 0 -33 3 -40 20 -40 18 0
20 -7 20 -60 l0 -60 305 0 c298 0 305 0 305 -20 0 -17 7 -20 40 -20 33 0 40
-3 40 -20 0 -13 7 -20 20 -20 13 0 20 -7 20 -20 0 -17 7 -20 40 -20 33 0 40
-3 40 -20 0 -15 7 -20 25 -20 18 0 25 -5 25 -20 0 -13 7 -20 20 -20 13 0 20
-7 20 -20 0 -13 7 -20 20 -20 13 0 20 -7 20 -20 0 -13 7 -20 20 -20 18 0 20
-7 20 -85 0 -78 2 -85 20 -85 17 0 20 -7 20 -40 l0 -40 220 0 220 0 0 80 c0
79 0 80 25 80 25 0 25 1 25 85 l0 85 40 0 c33 0 40 3 40 20 0 13 7 20 20 20
13 0 20 7 20 20 0 13 7 20 20 20 13 0 20 7 20 20 0 17 7 20 40 20 33 0 40 3
40 20 0 13 7 20 20 20 13 0 20 7 20 20 0 13 7 20 20 20 13 0 20 7 20 20 0 13
7 20 20 20 17 0 20 7 20 40 0 33 3 40 20 40 13 0 20 7 20 20 0 13 7 20 20 20
17 0 20 7 20 40 l0 40 185 0 c178 0 185 1 185 20 0 13 7 20 20 20 13 0 20 7
20 20 0 13 7 20 20 20 18 0 20 7 20 65 0 58 2 65 20 65 19 0 20 7 20 240 0
233 -1 240 -20 240 -18 0 -20 7 -20 85 0 78 -2 85 -20 85 -18 0 -20 7 -20 60
l0 60 -40 0 c-33 0 -40 -3 -40 -20 0 -18 -7 -20 -60 -20 -53 0 -60 -2 -60 -20
0 -18 -7 -20 -65 -20 -58 0 -65 -2 -65 -20 0 -13 -7 -20 -20 -20 -13 0 -20 7
-20 20 0 13 -7 20 -20 20 -13 0 -20 7 -20 20 0 13 -7 20 -20 20 -17 0 -20 7
-20 40 0 33 -3 40 -20 40 -13 0 -20 7 -20 20 0 13 -7 20 -20 20 -17 0 -20 7
-20 40 0 33 -3 40 -20 40 -19 0 -20 7 -20 225 l0 225 -40 0 c-33 0 -40 3 -40
20 0 17 -7 20 -40 20 -33 0 -40 3 -40 20 0 17 -7 20 -40 20 -33 0 -40 3 -40
20 0 18 -7 20 -65 20 -58 0 -65 2 -65 20 0 19 -7 20 -180 20 l-180 0 0 -60z"/>
</g>
</svg>
